<svg id="visual" viewBox="0 0 1200 500" width="1200" height="500" xmlns="http://www.w3.org/2000/svg" xmlns:xlink="http://www.w3.org/1999/xlink" version="1.1"><path d="M0 295L13.3 276.8C26.7 258.7 53.3 222.3 80 220.7C106.7 219 133.3 252 160 269.2C186.7 286.3 213.3 287.7 240 286.5C266.7 285.3 293.3 281.7 320 277.3C346.7 273 373.3 268 400 260.7C426.7 253.3 453.3 243.7 480 251.7C506.7 259.7 533.3 285.3 560 281.8C586.7 278.3 613.3 245.7 640 242C666.7 238.3 693.3 263.7 720 271.8C746.7 280 773.3 271 800 260.2C826.7 249.3 853.3 236.7 880 229C906.7 221.3 933.3 218.7 960 230.8C986.7 243 1013.3 270 1040 276.7C1066.7 283.3 1093.3 269.7 1120 265C1146.7 260.3 1173.3 264.7 1186.7 266.8L1200 269L1200 0L1186.7 0C1173.3 0 1146.7 0 1120 0C1093.3 0 1066.7 0 1040 0C1013.3 0 986.7 0 960 0C933.3 0 906.7 0 880 0C853.3 0 826.7 0 800 0C773.3 0 746.7 0 720 0C693.3 0 666.7 0 640 0C613.3 0 586.7 0 560 0C533.3 0 506.7 0 480 0C453.3 0 426.7 0 400 0C373.3 0 346.7 0 320 0C293.3 0 266.7 0 240 0C213.3 0 186.7 0 160 0C133.3 0 106.7 0 80 0C53.3 0 26.7 0 13.3 0L0 0Z" fill="#6600FF" stroke-linecap="round" stroke-linejoin="miter"></path></svg>