<svg id="visual" viewBox="0 0 1200 500" width="1200" height="500" xmlns="http://www.w3.org/2000/svg" xmlns:xlink="http://www.w3.org/1999/xlink" version="1.1"><g><g transform="translate(638 268)"><path d="M0 -87.5L87.5 0L0 87.5L-87.5 0Z" fill="#297EA6"></path></g><g transform="translate(94 196)"><path d="M0 -81L81 0L0 81L-81 0Z" fill="#297EA6"></path></g><g transform="translate(1032 135)"><path d="M0 -84L84 0L0 84L-84 0Z" fill="#297EA6"></path></g><g transform="translate(537 100)"><path d="M0 -78L78 0L0 78L-78 0Z" fill="#297EA6"></path></g><g transform="translate(1077 322)"><path d="M0 -67L67 0L0 67L-67 0Z" fill="#297EA6"></path></g><g transform="translate(305 119)"><path d="M0 -50L50 0L0 50L-50 0Z" fill="#297EA6"></path></g><g transform="translate(450 345)"><path d="M0 -77L77 0L0 77L-77 0Z" fill="#297EA6"></path></g><g transform="translate(802 160)"><path d="M0 -79L79 0L0 79L-79 0Z" fill="#297EA6"></path></g><g transform="translate(869 401)"><path d="M0 -76L76 0L0 76L-76 0Z" fill="#297EA6"></path></g><g transform="translate(246 330)"><path d="M0 -58L58 0L0 58L-58 0Z" fill="#297EA6"></path></g></g></svg>