<svg id="visual" viewBox="0 0 1200 500" width="1200" height="500" xmlns="http://www.w3.org/2000/svg" xmlns:xlink="http://www.w3.org/1999/xlink" version="1.1"><rect x="0" y="0" width="1200" height="500" fill="#002233"></rect><path d="M0 256L11.8 259.5C23.7 263 47.3 270 70.8 266.2C94.3 262.3 117.7 247.7 141.2 235.7C164.7 223.7 188.3 214.3 211.8 218.8C235.3 223.3 258.7 241.7 282.2 250.2C305.7 258.7 329.3 257.3 353 262.5C376.7 267.7 400.3 279.3 423.8 271C447.3 262.7 470.7 234.3 494.2 228.8C517.7 223.3 541.3 240.7 564.8 256.2C588.3 271.7 611.7 285.3 635.2 289.7C658.7 294 682.3 289 705.8 282.3C729.3 275.7 752.7 267.3 776.2 255C799.7 242.7 823.3 226.3 847 219C870.7 211.7 894.3 213.3 917.8 222C941.3 230.7 964.7 246.3 988.2 244C1011.7 241.7 1035.3 221.3 1058.8 216.3C1082.3 211.3 1105.7 221.7 1129.2 231.3C1152.7 241 1176.3 250 1188.2 254.5L1200 259L1200 0L1188.2 0C1176.3 0 1152.7 0 1129.2 0C1105.7 0 1082.3 0 1058.8 0C1035.3 0 1011.7 0 988.2 0C964.7 0 941.3 0 917.8 0C894.3 0 870.7 0 847 0C823.3 0 799.7 0 776.2 0C752.7 0 729.3 0 705.8 0C682.3 0 658.7 0 635.2 0C611.7 0 588.3 0 564.8 0C541.3 0 517.7 0 494.2 0C470.7 0 447.3 0 423.8 0C400.3 0 376.7 0 353 0C329.3 0 305.7 0 282.2 0C258.7 0 235.3 0 211.8 0C188.3 0 164.7 0 141.2 0C117.7 0 94.3 0 70.8 0C47.3 0 23.7 0 11.8 0L0 0Z" fill="#6600FF" stroke-linecap="round" stroke-linejoin="miter"></path></svg>