<svg id="visual" viewBox="0 0 1200 500" width="1200" height="500" xmlns="http://www.w3.org/2000/svg" xmlns:xlink="http://www.w3.org/1999/xlink" version="1.1"><g><g transform="translate(649 264)"><path d="M0 -87.5L75.8 43.7L-75.8 43.7Z" fill="#6600FF"></path></g><g transform="translate(452 230)"><path d="M0 -62L53.7 31L-53.7 31Z" fill="#6600FF"></path></g><g transform="translate(193 192)"><path d="M0 -56L48.5 28L-48.5 28Z" fill="#6600FF"></path></g><g transform="translate(874 119)"><path d="M0 -70L60.6 35L-60.6 35Z" fill="#6600FF"></path></g><g transform="translate(985 261)"><path d="M0 -61L52.8 30.5L-52.8 30.5Z" fill="#6600FF"></path></g><g transform="translate(529 395)"><path d="M0 -73L63.2 36.5L-63.2 36.5Z" fill="#6600FF"></path></g><g transform="translate(770 404)"><path d="M0 -81L70.1 40.5L-70.1 40.5Z" fill="#6600FF"></path></g><g transform="translate(1101 110)"><path d="M0 -79L68.4 39.5L-68.4 39.5Z" fill="#6600FF"></path></g><g transform="translate(119 396)"><path d="M0 -56L48.5 28L-48.5 28Z" fill="#6600FF"></path></g><g transform="translate(1110 409)"><path d="M0 -55L47.6 27.5L-47.6 27.5Z" fill="#6600FF"></path></g><g transform="translate(340 379)"><path d="M0 -61L52.8 30.5L-52.8 30.5Z" fill="#6600FF"></path></g><g transform="translate(698 94)"><path d="M0 -65L56.3 32.5L-56.3 32.5Z" fill="#6600FF"></path></g></g></svg>